<?xml version="1.0" encoding="UTF-8"?>
<svg id="_レイヤー_2" data-name="レイヤー 2" xmlns="http://www.w3.org/2000/svg" viewBox="0 0 386.3 129.01">
  <defs>
    <style>
      .cls-1 {
        fill: #ea7b40;
      }

      .cls-2 {
        fill: #fff;
      }
    </style>
  </defs>
  <g id="_レイヤー_1-2" data-name="レイヤー 1">
    <g>
      <g>
        <path class="cls-2" d="M53.4,62.3H25.4l-4.5,13.1H0L28.7,0h21.4l28.7,75.4h-20.9l-4.5-13.1Zm-5.2-14.9l-8.8-25.1-8.8,25.1h17.6Z"/>
        <path class="cls-2" d="M86,75.4V0h19.6l36.2,46.1V0h19.5V75.4h-19.5L105.6,29.3v46.1h-19.6Z"/>
        <path class="cls-1" d="M194.6,0V75.4h-19.6V0h19.6Z"/>
        <path class="cls-2" d="M204.2,75.4L217,0h19.4l15.1,40.2L266.5,0h19.4l12.8,75.4h-19.5l-6.5-43.4-17.8,43.4h-7.8l-16.9-43.4-6.5,43.4h-19.5Z"/>
        <path class="cls-2" d="M359.4,62.3h-28l-4.5,13.1h-20.9L334.7,0h21.4l28.7,75.4h-20.9l-4.5-13.1Zm-5.2-14.9l-8.8-25.1-8.8,25.1h17.6Z"/>
      </g>
      <g>
        <path class="cls-2" d="M19.93,109.63h17.02c0,1.75-.07,3.34-.22,4.77-.15,1.43-.44,2.76-.88,3.98-.61,1.72-1.44,3.25-2.49,4.57-1.05,1.33-2.28,2.44-3.7,3.33-1.42,.89-2.97,1.57-4.66,2.03-1.69,.47-3.47,.7-5.34,.7-2.57,0-4.91-.42-7.02-1.27-2.12-.85-3.93-2.03-5.45-3.56-1.52-1.53-2.7-3.37-3.54-5.51-.85-2.14-1.27-4.51-1.27-7.11s.42-4.92,1.25-7.07c.83-2.14,2.01-3.97,3.54-5.49,1.53-1.52,3.38-2.7,5.53-3.54,2.16-.85,4.56-1.27,7.22-1.27,3.44,0,6.46,.74,9.06,2.23,2.6,1.49,4.65,3.79,6.17,6.91l-8.14,3.37c-.76-1.81-1.74-3.11-2.95-3.89-1.21-.79-2.59-1.18-4.13-1.18-1.28,0-2.45,.24-3.5,.72-1.05,.48-1.95,1.17-2.69,2.06s-1.33,1.96-1.75,3.22c-.42,1.25-.63,2.65-.63,4.2,0,1.4,.18,2.7,.55,3.89,.36,1.2,.91,2.23,1.64,3.11,.73,.88,1.63,1.55,2.71,2.03,1.08,.48,2.33,.72,3.76,.72,.85,0,1.66-.09,2.45-.29,.79-.19,1.49-.5,2.12-.92,.63-.42,1.14-.97,1.55-1.64,.41-.67,.69-1.49,.83-2.45h-7.04v-6.65Z"/>
        <path class="cls-2" d="M49.9,95.1v17.94c0,.96,.04,1.95,.11,2.95,.07,1.01,.29,1.92,.66,2.73,.36,.82,.94,1.48,1.73,1.99,.79,.51,1.9,.77,3.33,.77s2.53-.25,3.3-.77c.77-.51,1.35-1.17,1.73-1.99,.38-.82,.6-1.73,.68-2.73,.07-1.01,.11-1.99,.11-2.95v-17.94h8.53v19.12c0,5.13-1.17,8.88-3.52,11.24-2.35,2.36-5.96,3.54-10.83,3.54s-8.49-1.18-10.85-3.54c-2.36-2.36-3.54-6.11-3.54-11.24v-19.12h8.58Z"/>
        <path class="cls-2" d="M84.51,95.1v32.99h-8.58v-32.99h8.58Z"/>
        <path class="cls-2" d="M104.98,102.37v25.73h-8.58v-25.73h-7.04v-7.26h22.66v7.26h-7.04Z"/>
        <path class="cls-2" d="M134.47,122.36h-12.25l-1.97,5.73h-9.14l12.56-32.99h9.36l12.56,32.99h-9.14l-1.97-5.73Zm-2.27-6.52l-3.85-10.98-3.85,10.98h7.7Z"/>
        <path class="cls-2" d="M177.31,128.09h-10.68l-8.18-12.69v12.69h-8.58v-32.99h13.34c1.84,0,3.44,.27,4.81,.81,1.37,.54,2.5,1.28,3.39,2.21s1.56,2.01,2.01,3.24c.45,1.22,.68,2.54,.68,3.94,0,2.51-.61,4.54-1.82,6.1-1.21,1.56-3,2.62-5.36,3.17l10.37,13.52Zm-18.86-18.24h1.62c1.69,0,2.99-.35,3.89-1.05,.9-.7,1.36-1.71,1.36-3.02s-.45-2.32-1.36-3.02-2.2-1.05-3.89-1.05h-1.62v8.14Z"/>
        <path class="cls-2" d="M213.88,103.55c-.93-.76-1.87-1.32-2.8-1.69-.93-.36-1.84-.55-2.71-.55-1.11,0-2.01,.26-2.71,.79-.7,.52-1.05,1.21-1.05,2.06,0,.58,.17,1.07,.53,1.44,.35,.38,.81,.71,1.38,.98,.57,.28,1.21,.52,1.92,.72,.71,.21,1.42,.42,2.12,.66,2.8,.93,4.85,2.18,6.15,3.74,1.3,1.56,1.95,3.59,1.95,6.1,0,1.69-.28,3.22-.85,4.59-.57,1.37-1.4,2.54-2.49,3.52-1.09,.98-2.44,1.73-4.03,2.27s-3.39,.81-5.4,.81c-4.17,0-8.04-1.24-11.59-3.72l3.67-6.91c1.28,1.14,2.55,1.98,3.81,2.54s2.49,.83,3.72,.83c1.4,0,2.44-.32,3.13-.96,.68-.64,1.03-1.37,1.03-2.19,0-.5-.09-.92-.26-1.29-.18-.37-.47-.7-.88-1.01-.41-.31-.94-.59-1.6-.85-.66-.26-1.45-.55-2.38-.88-1.11-.35-2.2-.74-3.26-1.16-1.07-.42-2.01-.98-2.84-1.68-.83-.7-1.5-1.58-2.01-2.65-.51-1.06-.77-2.41-.77-4.05s.27-3.11,.81-4.44c.54-1.33,1.3-2.46,2.27-3.41,.98-.95,2.17-1.68,3.59-2.21,1.41-.53,3-.79,4.75-.79,1.63,0,3.34,.23,5.12,.68,1.78,.45,3.49,1.12,5.12,1.99l-3.41,6.69Z"/>
        <path class="cls-2" d="M247.26,106.13c-1.98-2.42-4.43-3.63-7.35-3.63-1.28,0-2.47,.23-3.57,.7-1.09,.47-2.04,1.1-2.82,1.9-.79,.8-1.41,1.76-1.86,2.87-.45,1.11-.68,2.3-.68,3.59s.23,2.52,.68,3.63c.45,1.11,1.08,2.07,1.88,2.89,.8,.82,1.74,1.46,2.82,1.92,1.08,.47,2.25,.7,3.5,.7,2.74,0,5.21-1.17,7.39-3.5v10.15l-.88,.31c-1.31,.47-2.54,.81-3.67,1.03s-2.26,.33-3.37,.33c-2.27,0-4.46-.43-6.54-1.29-2.09-.86-3.92-2.07-5.51-3.63-1.59-1.56-2.87-3.41-3.83-5.56-.96-2.14-1.44-4.48-1.44-7.02s.47-4.86,1.42-6.98c.95-2.12,2.22-3.94,3.81-5.47,1.59-1.53,3.43-2.73,5.53-3.59,2.1-.86,4.3-1.29,6.61-1.29,1.31,0,2.6,.14,3.87,.42,1.27,.28,2.6,.71,4,1.29v10.24Z"/>
        <path class="cls-2" d="M261.26,107.83h12.38v-12.73h8.58v32.99h-8.58v-13.61h-12.38v13.61h-8.58v-32.99h8.58v12.73Z"/>
        <path class="cls-2" d="M286.07,111.6c0-2.45,.45-4.73,1.36-6.85,.9-2.12,2.16-3.96,3.76-5.54,1.6-1.58,3.52-2.81,5.75-3.7,2.23-.89,4.69-1.33,7.37-1.33s5.1,.44,7.35,1.33c2.25,.89,4.18,2.12,5.8,3.7s2.88,3.42,3.78,5.54,1.36,4.4,1.36,6.85-.45,4.73-1.36,6.85c-.9,2.12-2.17,3.96-3.78,5.54-1.62,1.57-3.55,2.81-5.8,3.7-2.25,.89-4.7,1.33-7.35,1.33s-5.14-.45-7.37-1.33c-2.23-.89-4.15-2.12-5.75-3.7-1.6-1.58-2.86-3.42-3.76-5.54-.9-2.11-1.36-4.4-1.36-6.85Zm8.97,0c0,1.31,.25,2.52,.74,3.63,.5,1.11,1.17,2.07,2.01,2.89,.85,.82,1.83,1.45,2.95,1.9,1.12,.45,2.31,.68,3.57,.68s2.44-.23,3.57-.68c1.12-.45,2.11-1.09,2.97-1.9,.86-.82,1.54-1.78,2.03-2.89,.5-1.11,.74-2.32,.74-3.63s-.25-2.52-.74-3.63c-.5-1.11-1.17-2.07-2.03-2.89s-1.85-1.45-2.97-1.9c-1.12-.45-2.31-.68-3.57-.68s-2.44,.23-3.57,.68c-1.12,.45-2.11,1.09-2.95,1.9-.85,.82-1.52,1.78-2.01,2.89-.5,1.11-.74,2.32-.74,3.63Z"/>
        <path class="cls-2" d="M326.54,111.6c0-2.45,.45-4.73,1.36-6.85,.9-2.12,2.16-3.96,3.76-5.54,1.6-1.58,3.52-2.81,5.75-3.7,2.23-.89,4.69-1.33,7.37-1.33s5.1,.44,7.35,1.33c2.25,.89,4.18,2.12,5.8,3.7s2.88,3.42,3.78,5.54,1.36,4.4,1.36,6.85-.45,4.73-1.36,6.85c-.9,2.12-2.17,3.96-3.78,5.54-1.62,1.57-3.55,2.81-5.8,3.7-2.25,.89-4.7,1.33-7.35,1.33s-5.14-.45-7.37-1.33c-2.23-.89-4.15-2.12-5.75-3.7-1.6-1.58-2.86-3.42-3.76-5.54-.9-2.11-1.36-4.4-1.36-6.85Zm8.97,0c0,1.31,.25,2.52,.74,3.63,.5,1.11,1.17,2.07,2.01,2.89,.85,.82,1.83,1.45,2.95,1.9,1.12,.45,2.31,.68,3.57,.68s2.44-.23,3.57-.68c1.12-.45,2.11-1.09,2.97-1.9,.86-.82,1.54-1.78,2.03-2.89,.5-1.11,.74-2.32,.74-3.63s-.25-2.52-.74-3.63c-.5-1.11-1.17-2.07-2.03-2.89s-1.85-1.45-2.97-1.9c-1.12-.45-2.31-.68-3.57-.68s-2.44,.23-3.57,.68c-1.12,.45-2.11,1.09-2.95,1.9-.85,.82-1.52,1.78-2.01,2.89-.5,1.11-.74,2.32-.74,3.63Z"/>
        <path class="cls-2" d="M376.02,95.1v25.73h10.28v7.26h-18.86v-32.99h8.58Z"/>
      </g>
    </g>
  </g>
</svg>