<?xml version="1.0" encoding="UTF-8"?>
<svg id="_レイヤー_2" data-name="レイヤー 2" xmlns="http://www.w3.org/2000/svg" viewBox="0 0 365.43 567.15">
  <defs>
    <style>
      .cls-1, .cls-2, .cls-3, .cls-4, .cls-5, .cls-6, .cls-7, .cls-8, .cls-9, .cls-10, .cls-11, .cls-12, .cls-13, .cls-14, .cls-15 {
        stroke: #000;
        stroke-linecap: round;
        stroke-linejoin: round;
      }

      .cls-1, .cls-4, .cls-5, .cls-6, .cls-7, .cls-8 {
        stroke-width: 4px;
      }

      .cls-1, .cls-9 {
        fill: #2b9e97;
      }

      .cls-16, .cls-5 {
        fill: #ea7b40;
      }

      .cls-17, .cls-6, .cls-11 {
        fill: #fff0eb;
      }

      .cls-2 {
        fill: #c7c7c7;
      }

      .cls-2, .cls-3 {
        stroke-width: 2px;
      }

      .cls-3, .cls-7, .cls-14 {
        fill: #fff;
      }

      .cls-4 {
        fill: #b7b7b7;
      }

      .cls-8, .cls-15 {
        fill: none;
      }

      .cls-9, .cls-10, .cls-13, .cls-14, .cls-15 {
        stroke-width: 3px;
      }

      .cls-10, .cls-12 {
        fill: #d8bb72;
      }

      .cls-11 {
        stroke-width: 3.7px;
      }

      .cls-12 {
        stroke-width: 3px;
      }

      .cls-13 {
        fill: #f1ecec;
      }
    </style>
  </defs>
  <g id="_レイヤー_1-2" data-name="レイヤー 1">
    <g id="character">
      <g id="face">
        <ellipse class="cls-17" cx="167.99" cy="154.42" rx="126" ry="113.5"/>
        <path class="cls-14" d="M141.49,233.42l37.87-5.51s3.34,12.09-7.96,18.07c-4.53,2.4-9.85,2.82-14.81,1.54-6.44-1.66-13.19-5.87-15.1-14.1Z"/>
        <line class="cls-15" x1="141.99" y1="222.92" x2="141.99" y2="224.92"/>
        <path class="cls-15" d="M72.35,133.6s35.89-6.49,56.42,13.19"/>
        <path class="cls-15" d="M235.67,134.03s-35.21-9.5-57.33,8.37"/>
        <path d="M244.83,186.99c.6-.53,1.38,.33,1.1,1.21-1,3.25-2.95,7.32-6.63,9.1-6.13,2.97-34.25-16.55-59.64-1.01-1.07,.66-2.16-.83-1.28-1.77,1.86-1.98,4.34-4.22,7.54-6.33,10.69-7.03,32.08-7.04,46.79,0,4.21,2.02,10.57,.17,12.12-1.2Z"/>
        <path d="M60.21,186.99c-.6-.53-1.38,.33-1.1,1.21,1,3.25,2.95,7.32,6.63,9.1,6.13,2.97,34.25-16.55,59.64-1.01,1.07,.66,2.16-.83,1.28-1.77-1.86-1.98-4.34-4.22-7.54-6.33-10.69-7.03-32.08-7.04-46.79,0-4.21,2.02-10.57,.17-12.12-1.2Z"/>
      </g>
      <path id="hair-color" class="cls-16" d="M227.49,96.42s-15.5,31.5-38,32c0,0,14.5-33.5,9-52,0,0-8.5,44.5-61,55,0,0,17.5-34.5,12-52,0,0-9.59,48.25-36.05,49.38,0,0,20.55-36.88,21.05-57.38,0,0-47.5,65.5-74,73,0,0-10.66,86.57,25.42,89.53-14.27,11.4,49.08,33.97,65.08,34.97,23.36,1.46-61,47-65.8,24.7,0,0,12.8-9.7,3.3-22.2,0,0-16.05,28.5-43.77,10.5,0,0,20.27-11,11.77-15.5s-28.5-5.5-31-39c0,0-30.14-9.15-22.82-53.33,0,0-1.68-8.17,6.82-24.67S16.71,9.16,171.85,2.04c0,0,191.14-.12,163.64,164.38,0,0-11.5,22.5,0,35s2.87,61.49-16.82,66c0,0,7.84,21-16.42,14.75,0,0-4.02,13.94-23.64,7.35-19.62-6.6-16.39-4.83-16.39-4.83,0,0-.81,6.23-15.02-.77,0,0,11.79,15-19.71,1.5-44.58-19.11-20.5-19.5,18.07-40.74,.43-.24,11.93-27.26,11.93-27.26,0,0-8.86,22.99-27.18,17.75,0,0,36.68-65.25-2.82-138.75Z"/>
      <g id="hair-line">
        <path class="cls-8" d="M47.49,218.42c24,22,40,16,40,16-38-10-27-90-27-90,40-20,74-73,74-73-2,26-22,59-22,59,31-8,37-51,37-51,1,27-12,52-12,52,42-3,61-55,61-55,5,23-9,52-9,52,23-6,38-32,38-32,0,0,39.64,76.49,2.82,138.75,0,0,14.18,6.25,27.18-17.75,0,0-42,70,31,73,0,0,7.52,1.5,13.76-8.25,0,0,23.24,6.25,15.24-13.75,0,0,39-31,18-67,0,0-8-10,0-35s12-87-44-128S108.49-21.58,52.49,50.42c0,0-30,24-34,75,0,0-1,11-9,24S-7.51,218.42,25.49,227.42c0,0,0,33,31,39,0,0,9,6-8,12-17,6,28,22,40-7,0,0,9.88,9.17-1.06,19.08-10.94,9.92,17.88,15.08,35.47,0"/>
        <path id="jaw" class="cls-8" d="M81.99,234.92c-5.9,9.32,82,65,164,10"/>
        <path class="cls-8" d="M227.49,285.42s6,9,25,6c0,0-3.82-2.5-5.91-9.25,0,0,8.2,8.13,17.06,3.19"/>
      </g>
      <path id="ear" class="cls-6" d="M283.5,188.14l-6.47,35.78s3.95,13,16.95,1c13-12,14-32,14-32,0,0-.5-10.54-8.61-13.84-6.87-2.8-14.55,1.76-15.87,9.06Z"/>
      <g id="dango">
        <path class="cls-5" d="M293.14,98.67c-4.15-5-7.3-10.77-9.09-17.02-4.38-15.33-5.95-43.02,36.94-48.74,55.18-7.36,57.08,96.88,2.58,86.09-8.97-1.78-17.13-6.38-23.6-12.84-2.11-2.11-4.46-4.62-6.84-7.48Z"/>
        <path class="cls-15" d="M289.13,47s9.86,62.91,42.86,72.91"/>
        <path class="cls-15" d="M328.99,32.63s-17.9,36.25,26.55,74.26"/>
        <path class="cls-15" d="M347.38,39.83s-13.36,33.56,15.12,49.32"/>
      </g>
      <g>
        <path class="cls-6" d="M124.99,429.92s19,94,5,115c0,0,10.84,24,40.42,0,0,0-12-55.13,.58-116,0,0-33.53-16.64-46,1Z"/>
        <path class="cls-7" d="M135.19,520.38s24.09,5.44,31.8-2.46l3.42,27s-24.42,23-40.42,0c0,0,5.4-12.08,5.2-24.54Z"/>
        <path d="M132.91,536.48s-12,5.88-12.46,18.66,34.54,18.78,53.11,.44c0,0,1.43-12.67-3.57-19.67,0,0-21.17,9.13-37.09,.56Z"/>
      </g>
      <g>
        <path class="cls-6" d="M160.3,435.81s56.12,77.76,52.05,102.67c0,0,19.78,17.38,36.81-16.69,0,0-33.7-45.25-47.38-105.89,0,0-37.41-1.3-41.48,19.91Z"/>
        <path class="cls-7" d="M206.95,513.98s24.18-4.99,27.94-15.37l14.26,23.18s-12.74,31.03-36.81,16.69c0,0-.07-13.23-5.4-24.5Z"/>
        <path d="M211.52,529.59s-8.5,10.31-3.64,22.14,39.21,2.84,48.55-21.53c0,0-3.93-12.13-11.37-16.44,0,0-15.51,17.05-33.54,15.83Z"/>
      </g>
      <g id="skirt">
        <path class="cls-1" d="M90.99,404.92l-26,45c1.57,4.41,104.18,56.7,213-2l-32-53s-67.65,43.66-155,10Z"/>
        <line class="cls-15" x1="124.45" y1="416.68" x2="110.12" y2="467.79"/>
        <line class="cls-15" x1="155.96" y1="421.76" x2="151.67" y2="474.37"/>
        <line class="cls-15" x1="195.74" y1="420.84" x2="205.55" y2="471.49"/>
        <line class="cls-15" x1="227.49" y1="413.01" x2="245.99" y2="461.21"/>
      </g>
      <g id="arm">
        <path class="cls-7" d="M137.99,267.14c-12-2.62-37.47-10.94-64.42-36.84-4.95-4.75-12.96-4.33-17.29,1-6.3,7.75-12.03,20.02-3.88,34.73,14.12,25.47,81.57,23.23,81.57,23.23,0,0,14.2-2.04,12.91-12.58-.53-4.31-4.64-8.61-8.88-9.54Z"/>
        <path class="cls-7" d="M45.68,231.51c6.96-5.97,17.89-4.03,21.92,4.21,.72,1.47,1.18,3.06,1.27,4.78,.53,10.28-8.85,20.76-8.85,20.76,0,0-12.15,10.04-18.98-5.74-6.83-15.78,4.45-23.84,4.45-23.84l.19-.16Z"/>
        <ellipse class="cls-11" cx="42.49" cy="237.92" rx="17.5" ry="15" transform="translate(-139.98 79.45) rotate(-38.9)"/>
      </g>
      <g id="vest">
        <path class="cls-4" d="M153.49,268.86s-42.71,79.95-62.11,129.74c-1.39,3.57,.39,7.58,3.96,8.97,20.38,7.97,86.29,29.28,145.96-.64,3.32-1.67,5.05-5.41,4.08-9-6.49-23.91-30.91-112.4-42.25-133.53,0,0-17.14,8.4-49.64,4.45Z"/>
        <path class="cls-15" d="M149.99,397.92s49.01,11.76,91.51-14.12"/>
        <path class="cls-15" d="M200.99,406.92s1.82,7.76,6.41,11.88"/>
        <path class="cls-15" d="M214.99,402.92s1.82,7.76,6.41,11.88"/>
      </g>
      <g id="ribbon">
        <path class="cls-9" d="M177.56,286.68s2.82,20,10.7,25.06c6.07,3.89,15.47-11.23,19.48-18.41,1.18-2.11,.44-4.8-1.68-5.94-5.13-2.76-15.39-6.31-28.5-.71Z"/>
        <path class="cls-9" d="M169.05,287s-12.36-3.27-27.2,7.4c-1.34,.97-1.72,2.8-.9,4.24,2.19,3.83,7.03,11.08,14.12,15.06,2.02,1.13,4.58,.62,5.95-1.25,3.5-4.79,9.59-14.88,8.03-25.44Z"/>
        <path class="cls-9" d="M169.83,277.14c-3.23-2.42-11.67-7.37-25.46-6.08-1.65,.15-2.88,1.61-2.78,3.26,.32,5.4,1.59,16.97,6.68,22.86,.71,.83,1.84,1.16,2.91,.94,3.42-.69,11.38-2.83,18.15-8.61,1.14-.98,2.79-1.05,3.97-.12,3.38,2.67,11.07,7.62,22.84,8.83,1.42,.15,2.76-.69,3.24-2.03,1.41-3.91,4.4-12.52,7.07-22.24,.49-1.79-.68-3.61-2.52-3.89-5.15-.78-15.99-.88-30.79,7.31-1.05,.58-2.35,.49-3.31-.23Z"/>
        <path class="cls-9" d="M169.58,277.97h3.42c2.13,0,3.69,2.02,3.15,4.08l-1.03,3.94c-.37,1.43-1.67,2.43-3.15,2.43h-2.39c-1.8,0-3.25-1.46-3.25-3.25v-3.94c0-1.8,1.46-3.25,3.25-3.25Z"/>
      </g>
      <g id="arm-2" data-name="arm">
        <path class="cls-7" d="M223.3,262.18c11.72,3.69,32.37,16.08,68.63,7.01,6.65-1.67,13.4,2.69,14.51,9.46,1.61,9.86,.49,23.35-13.9,32.06-19.79,11.97-58.94-8.27-74.22-17.1-5.81-3.36-10.39-8.59-12.61-14.92-1.43-4.08-1.87-8.54,.72-11.99,2.6-3.48,12.73-5.82,16.87-4.51Z"/>
        <path class="cls-7" d="M302.52,278.1c-3.07-8.64-13.52-12.39-21.11-7.24-1.35,.92-2.55,2.07-3.48,3.51-5.57,8.66-2.64,22.41-2.64,22.41,0,0,5.55,14.75,19.32,4.46,13.77-10.29,7.99-22.9,7.99-22.9l-.08-.24Z"/>
      </g>
    </g>
    <g id="guitar">
      <path class="cls-13" d="M188.09,281.11c-6.42,.42-28.98,3.62-40.7,27.44-3.05,6.21-7.73,11.51-13.76,14.89-5.15,2.89-17.63,4.6-26.54,4.87-21.49,.66-68.41,28.87-30.33,83.36,16.07,22.99,32.1,32.27,45.27,35.33,18.65,4.33,37.99-5.43,45.52-23.04,.88-2.07,1.58-4.22,1.99-6.41,1.97-10.48,8.83-16.43,14.01-17.51,3.36-.7,10.31-2.24,13.46-3.59,8.54-3.66,22.62-8.43,27.76-22,2.31-6.11-1.69-12.85-8.19-13.5-.09,0-.18-.02-.27-.02-12.64-1.04-23.33-10.06-25.7-22.51-.08-.44-.16-.89-.24-1.34,0,0,1.86-5.05-5.3-10.86s22.27-38.75,7.02-44.55c-1.27-.48-2.64-.62-3.99-.53Z"/>
      <path class="cls-3" d="M103.34,367.64c-4.65-3.3-4.5-10.29,.3-13.35,5.53-3.52,14.13-7.29,25.47-7.06,19.82,.4,9.9-13.5,31.04-25.76,4.22-2.45,9.43-2.81,13.76-.55,3.7,1.93,7.22,5.89,7.88,13.87,1.49,17.97,14.95,34.61,25.89,32.31,10.94-2.3,18.43,15.5-17.45,20.48,0,0-23.86,5.65-28.36,23.78s-23.31,25.64-23.31,25.64c0,0-9.91,3.27-8.11-3.78s12.51-18.35,3.07-34.1c-1.72-2.87-3.44-5.51-5.09-7.91-6.04-8.76-13.83-16.14-22.73-21.97-.8-.52-1.59-1.06-2.36-1.61Z"/>
      <path class="cls-10" d="M294.32,253.58l-120.43,84.89c-1.3,.92-1.58,2.74-.6,4.01l8.79,11.47c1.05,1.38,3.02,1.63,4.39,.58l119.5-91.72c.52-.4,.83-1,.87-1.61"/>
      <g>
        <circle class="cls-2" cx="295.27" cy="241.94" r="3.5"/>
        <circle class="cls-2" cx="304.25" cy="235.92" r="3.5"/>
        <circle class="cls-2" cx="313.24" cy="229.9" r="3.5"/>
        <circle class="cls-2" cx="322.23" cy="223.88" r="3.5"/>
        <circle class="cls-2" cx="331.22" cy="218.87" r="3.5"/>
        <circle class="cls-2" cx="340.21" cy="213.85" r="3.5"/>
      </g>
      <path class="cls-12" d="M306.84,261.2l9.47,5.73c3.48,2.1,8.15,.61,10-3.2l20.61-42.51c2.08-4.37-2.69-8.5-6.74-5.85l-44.81,29.36c-3.12,2.05-3.63,6.39-1.05,8.84"/>
      <circle class="cls-3" cx="151.71" cy="405.63" r="4"/>
      <circle class="cls-3" cx="146.1" cy="419.79" r="4"/>
      <rect class="cls-3" x="165.36" y="342.18" width="5" height="27" rx="2.5" ry="2.5" transform="translate(-186.13 184.29) rotate(-38.9)"/>
      <rect class="cls-3" x="149.69" y="354.61" width="5" height="27" rx="2.5" ry="2.5" transform="translate(-197.41 177.21) rotate(-38.9)"/>
      <rect class="cls-3" x="129.08" y="369.17" width="5" height="27" rx="2.5" ry="2.5" transform="translate(-165.24 107.63) rotate(-28.21)"/>
      <rect class="cls-2" x="108.4" y="377.65" width="12" height="34" transform="translate(-222.46 159.36) rotate(-38.9)"/>
      <ellipse class="cls-2" cx="121.24" cy="425.47" rx="11" ry="5" transform="translate(-321.17 426.88) rotate(-74.28)"/>
    </g>
  </g>
</svg>