<?xml version="1.0" encoding="UTF-8"?>
<svg id="_レイヤー_2" data-name="レイヤー 2" xmlns="http://www.w3.org/2000/svg" xmlns:xlink="http://www.w3.org/1999/xlink" viewBox="0 0 365.43 567.15">
  <defs>
    <style>
      .cls-1, .cls-2, .cls-3, .cls-4 {
        fill: none;
      }

      .cls-5 {
        clip-path: url(#clippath);
      }

      .cls-6, .cls-7, .cls-8 {
        fill: #2b9e97;
      }

      .cls-6, .cls-9, .cls-10, .cls-11, .cls-12, .cls-2, .cls-3, .cls-8, .cls-13, .cls-14, .cls-4 {
        stroke: #000;
        stroke-linecap: round;
        stroke-linejoin: round;
      }

      .cls-6, .cls-9, .cls-10, .cls-11, .cls-12, .cls-3 {
        stroke-width: 4px;
      }

      .cls-15, .cls-10, .cls-13 {
        fill: #ea7b40;
      }

      .cls-16, .cls-12, .cls-14 {
        fill: #fff;
      }

      .cls-17, .cls-11 {
        fill: #fff0eb;
      }

      .cls-9 {
        fill: #b7b7b7;
      }

      .cls-18 {
        clip-path: url(#clippath-1);
      }

      .cls-2 {
        stroke-width: 2px;
      }

      .cls-8, .cls-13, .cls-14, .cls-4 {
        stroke-width: 3px;
      }
    </style>
    <clipPath id="clippath">
      <ellipse class="cls-1" cx="98.99" cy="188.42" rx="23" ry="26.5"/>
    </clipPath>
    <clipPath id="clippath-1">
      <ellipse class="cls-1" cx="202.88" cy="188.42" rx="23" ry="26.5"/>
    </clipPath>
  </defs>
  <g id="_レイヤー_1-2" data-name="レイヤー 1">
    <g id="character">
      <g id="face">
        <ellipse class="cls-17" cx="167.99" cy="154.42" rx="126" ry="113.5"/>
        <path class="cls-14" d="M142.49,238.42l31-2s7.7,14.16-13.99,15.36c0,0-15.36-.4-17.01-13.36Z"/>
        <line class="cls-4" x1="141.99" y1="222.92" x2="141.99" y2="224.92"/>
        <g>
          <path d="M56.99,160.92s-4,12,9,22c0,0,.37,1.65,3-8,3-11,33-25,57-5,0,0,6.22,4.44,2-4-5-10-44-22-63-2,0,0-5,6-8-3Z"/>
          <ellipse cx="98.99" cy="188.42" rx="23" ry="26.5"/>
          <g class="cls-5">
            <ellipse class="cls-7" cx="98.99" cy="203.42" rx="21" ry="18.5"/>
          </g>
          <path class="cls-16" d="M93.22,182.9c-10.38,.93-10.38,10.1,0,11.03,.93,10.38,10.1,10.38,11.03,0,10.38-.93,10.38-10.1,0-11.03-.93-10.38-10.1-10.38-11.03,0Z"/>
          <path class="cls-2" d="M83.49,148.42s28.51-4,42.26,9.5"/>
        </g>
        <g>
          <path d="M246.88,160.92s4,12-9,22c0,0-.37,1.65-3-8-3-11-33-25-57-5,0,0-6.22,4.44-2-4,5-10,44-22,63-2,0,0,5,6,8-3Z"/>
          <ellipse cx="202.88" cy="188.42" rx="23" ry="26.5"/>
          <g class="cls-18">
            <ellipse class="cls-7" cx="202.88" cy="203.42" rx="21" ry="18.5"/>
          </g>
          <path class="cls-16" d="M206.64,182.9c10.38,.93,10.38,10.1,0,11.03-.93,10.38-10.1,10.38-11.03,0-10.38-.93-10.38-10.1,0-11.03,.93-10.38,10.1-10.38,11.03,0Z"/>
          <path class="cls-2" d="M220.38,148.42s-28.51-4-42.26,9.5"/>
        </g>
        <path class="cls-4" d="M72.08,132.43s33.36-14.74,57.94-.44"/>
        <path class="cls-4" d="M235.5,131.99s-32.51-16.53-57.83-3.57"/>
      </g>
      <path id="hair-color" class="cls-15" d="M227.49,96.42s-15.5,31.5-38,32c0,0,14.5-33.5,9-52,0,0-8.5,44.5-61,55,0,0,17.5-34.5,12-52,0,0-9.59,48.25-36.05,49.38,0,0,20.55-36.88,21.05-57.38,0,0-47.5,65.5-74,73,0,0-10.66,86.57,25.42,89.53-14.27,11.4,49.08,33.97,65.08,34.97,23.36,1.46-61,47-65.8,24.7,0,0,12.8-9.7,3.3-22.2,0,0-16.05,28.5-43.77,10.5,0,0,20.27-11,11.77-15.5s-28.5-5.5-31-39c0,0-30.14-9.15-22.82-53.33,0,0-1.68-8.17,6.82-24.67S16.71,9.16,171.85,2.04c0,0,191.14-.12,163.64,164.38,0,0-11.5,22.5,0,35s2.87,61.49-16.82,66c0,0,7.84,21-16.42,14.75,0,0-4.02,13.94-23.64,7.35-19.62-6.6-16.39-4.83-16.39-4.83,0,0-.81,6.23-15.02-.77,0,0,11.79,15-19.71,1.5-44.58-19.11-20.5-19.5,18.07-40.74,.43-.24,11.93-27.26,11.93-27.26,0,0-8.86,22.99-27.18,17.75,0,0,36.68-65.25-2.82-138.75Z"/>
      <g id="hair-line">
        <path class="cls-3" d="M47.49,218.42c24,22,40,16,40,16-38-10-27-90-27-90,40-20,74-73,74-73-2,26-22,59-22,59,31-8,37-51,37-51,1,27-12,52-12,52,42-3,61-55,61-55,5,23-9,52-9,52,23-6,38-32,38-32,0,0,39.64,76.49,2.82,138.75,0,0,14.18,6.25,27.18-17.75,0,0-42,70,31,73,0,0,7.52,1.5,13.76-8.25,0,0,23.24,6.25,15.24-13.75,0,0,39-31,18-67,0,0-8-10,0-35s12-87-44-128S108.49-21.58,52.49,50.42c0,0-30,24-34,75,0,0-1,11-9,24S-7.51,218.42,25.49,227.42c0,0,0,33,31,39,0,0,9,6-8,12-17,6,28,22,40-7,0,0,9.88,9.17-1.06,19.08s17.88,15.08,35.47,0"/>
        <path id="jaw" class="cls-3" d="M81.99,234.92c-5.9,9.32,82,65,164,10"/>
        <path class="cls-3" d="M227.49,285.42s6,9,25,6c0,0-3.82-2.5-5.91-9.25,0,0,8.2,8.13,17.06,3.19"/>
      </g>
      <path id="ear" class="cls-11" d="M283.5,188.14l-6.47,35.78s3.95,13,16.95,1c13-12,14-32,14-32,0,0-.5-10.54-8.61-13.84-6.87-2.8-14.55,1.76-15.87,9.06Z"/>
      <g id="dango">
        <path class="cls-10" d="M293.14,98.67c-4.15-5-7.3-10.77-9.09-17.02-4.38-15.33-5.95-43.02,36.94-48.74,55.18-7.36,57.08,96.88,2.58,86.09-8.97-1.78-17.13-6.38-23.6-12.84-2.11-2.11-4.46-4.62-6.84-7.48Z"/>
        <path class="cls-13" d="M289.13,47s9.86,62.91,42.86,72.91"/>
        <path class="cls-13" d="M328.99,32.63s-17.9,36.25,26.55,74.26"/>
        <path class="cls-13" d="M347.38,39.83s-13.36,33.56,15.12,49.32"/>
      </g>
      <g>
        <path class="cls-11" d="M124.99,429.92s19,94,5,115c0,0,10.84,24,40.42,0,0,0-12-55.13,.58-116,0,0-33.53-16.64-46,1Z"/>
        <path class="cls-12" d="M135.19,520.38s24.09,5.44,31.8-2.46l3.42,27s-24.42,23-40.42,0c0,0,5.4-12.08,5.2-24.54Z"/>
        <path d="M132.91,536.48s-12,5.88-12.46,18.66,34.54,18.78,53.11,.44c0,0,1.43-12.67-3.57-19.67,0,0-21.17,9.13-37.09,.56Z"/>
      </g>
      <g>
        <path class="cls-11" d="M160.3,435.81s56.12,77.76,52.05,102.67c0,0,19.78,17.38,36.81-16.69,0,0-33.7-45.25-47.38-105.89,0,0-37.41-1.3-41.48,19.91Z"/>
        <path class="cls-12" d="M206.95,513.98s24.18-4.99,27.94-15.37l14.26,23.18s-12.74,31.03-36.81,16.69c0,0-.07-13.23-5.4-24.5Z"/>
        <path d="M211.52,529.59s-8.5,10.31-3.64,22.14,39.21,2.84,48.55-21.53c0,0-3.93-12.13-11.37-16.44,0,0-15.51,17.05-33.54,15.83Z"/>
      </g>
      <g id="skirt">
        <path class="cls-6" d="M90.99,404.92l-26,45c1.57,4.41,104.18,56.7,213-2l-32-53s-67.65,43.66-155,10Z"/>
        <line class="cls-4" x1="124.45" y1="416.68" x2="110.12" y2="467.79"/>
        <line class="cls-4" x1="155.96" y1="421.76" x2="151.67" y2="474.37"/>
        <line class="cls-4" x1="195.74" y1="420.84" x2="205.55" y2="471.49"/>
        <line class="cls-4" x1="227.49" y1="413.01" x2="245.99" y2="461.21"/>
      </g>
      <g id="arm">
        <path class="cls-12" d="M137.19,271.4c-8.58,8.79-29.13,25.99-65.37,35.13-6.65,1.68-10.53,8.7-8.31,15.19,3.23,9.45,10.61,20.81,27.4,21.68,29.08,1.51,62.91-56.88,62.91-56.88,0,0,5.79-13.13-3.83-17.61-3.94-1.83-9.76-.63-12.8,2.48Z"/>
        <path class="cls-12" d="M58.09,330.82c-1.37-9.06,6.06-17.31,15.18-16.36,1.62,.17,3.22,.62,4.72,1.45,9,5,12.92,18.5,12.92,18.5,0,0,2.08,15.62-14.92,13.06s-17.87-16.4-17.87-16.4l-.04-.25Z"/>
        <path class="cls-11" d="M52.74,343.4s-10.91-16.99,3.67-20.24,27.02,1.78,25.3,14.27-5.72,6-5.72,6c0,0,3,10.48-3,11.48s-5.99-7.15-5.99-7.15c0,0-11.52,2.13-14.27-4.36Z"/>
        <path class="cls-2" d="M64.99,334.87s-.98,5.74,2.01,12.89"/>
        <path class="cls-2" d="M56.99,335.92s.12,11.69,2.06,11.85"/>
      </g>
      <g id="vest">
        <path class="cls-9" d="M153.49,268.86s-42.71,79.95-62.11,129.74c-1.39,3.57,.39,7.58,3.96,8.97,20.38,7.97,86.29,29.28,145.96-.64,3.32-1.67,5.05-5.41,4.08-9-6.49-23.91-30.91-112.4-42.25-133.53,0,0-17.14,8.4-49.64,4.45Z"/>
        <path class="cls-4" d="M149.99,397.92s49.01,11.76,91.51-14.12"/>
        <path class="cls-4" d="M200.99,406.92s1.82,7.76,6.41,11.88"/>
        <path class="cls-4" d="M214.99,402.92s1.82,7.76,6.41,11.88"/>
      </g>
      <g id="ribbon">
        <path class="cls-8" d="M177.56,286.68s2.82,20,10.7,25.06c6.07,3.89,15.47-11.23,19.48-18.41,1.18-2.11,.44-4.8-1.68-5.94-5.13-2.76-15.39-6.31-28.5-.71Z"/>
        <path class="cls-8" d="M169.05,287s-12.36-3.27-27.2,7.4c-1.34,.97-1.72,2.8-.9,4.24,2.19,3.83,7.03,11.08,14.12,15.06,2.02,1.13,4.58,.62,5.95-1.25,3.5-4.79,9.59-14.88,8.03-25.44Z"/>
        <path class="cls-8" d="M169.83,277.14c-3.23-2.42-11.67-7.37-25.46-6.08-1.65,.15-2.88,1.61-2.78,3.26,.32,5.4,1.59,16.97,6.68,22.86,.71,.83,1.84,1.16,2.91,.94,3.42-.69,11.38-2.83,18.15-8.61,1.14-.98,2.79-1.05,3.97-.12,3.38,2.67,11.07,7.62,22.84,8.83,1.42,.15,2.76-.69,3.24-2.03,1.41-3.91,4.4-12.52,7.07-22.24,.49-1.79-.68-3.61-2.52-3.89-5.15-.78-15.99-.88-30.79,7.31-1.05,.58-2.35,.49-3.31-.23Z"/>
        <path class="cls-8" d="M169.58,277.97h3.42c2.13,0,3.69,2.02,3.15,4.08l-1.03,3.94c-.37,1.43-1.67,2.43-3.15,2.43h-2.39c-1.8,0-3.25-1.46-3.25-3.25v-3.94c0-1.8,1.46-3.25,3.25-3.25Z"/>
      </g>
      <g id="arm-2" data-name="arm">
        <path class="cls-12" d="M200.99,268.92c-8.58,8.79-20.93,29.47-57.17,38.61-6.65,1.68-10.53,8.7-8.31,15.19,3.23,9.45,10.61,20.81,27.4,21.68,23.1,1.2,48.04-35.14,57.32-50.15,3.53-5.71,5.1-12.48,4.06-19.11-.67-4.27-2.39-8.41-6.3-10.23s-13.97,.89-17,4Z"/>
        <path class="cls-12" d="M130.09,331.82c-1.37-9.06,6.06-17.31,15.18-16.36,1.62,.17,3.22,.62,4.72,1.45,9,5,12.92,18.5,12.92,18.5,0,0,2.08,15.62-14.92,13.06s-17.87-16.4-17.87-16.4l-.04-.25Z"/>
        <path class="cls-11" d="M149.95,344.4s10.91-16.99-3.67-20.24c-14.58-3.25-27.02,1.78-25.3,14.27s5.72,6,5.72,6c0,0-3,10.48,3,11.48s5.99-7.15,5.99-7.15c0,0,11.52,2.13,14.27-4.36Z"/>
        <path class="cls-2" d="M142.99,335.87s-.98,5.74,2.01,12.89"/>
        <path class="cls-2" d="M135.99,336.92s.12,11.69,2.06,11.85"/>
      </g>
    </g>
  </g>
</svg>